<svg width="32" height="32" viewBox="0 0 32 32" fill="none" xmlns="http://www.w3.org/2000/svg">
<g id="Icon / Special / Portkey">
<g id="Icon / Special / Portkey_2">
<rect id="Rectangle" width="32" height="32" rx="16" fill="white"/>
<g id="Icon / Fill / Aelf Copy">
<path id="Shape" fill-rule="evenodd" clip-rule="evenodd" d="M15.1288 9.79239C12.4666 10.9602 10.7923 13.8163 11.767 16.6546C12.3564 18.371 13.5442 19.5941 15.3057 20.2193C18.386 21.3126 21.6015 18.9086 21.2408 15.7837C21.0878 14.4555 20.4133 13.4442 19.0435 13.0258C18.0245 12.7145 17.0493 12.8599 16.2537 13.6003C15.5783 14.228 15.3223 15.0012 15.5928 15.8998C15.742 16.3939 16.1006 16.7014 16.5883 16.8481C17.0166 16.9766 17.3479 16.7907 17.6031 16.4352C17.5516 16.3493 17.5065 16.2553 17.444 16.1745C17.111 15.7441 17.3811 15.1181 17.669 14.8574C18.0602 14.5032 18.6939 14.4708 19.1102 14.7643C19.7856 15.2393 20.0926 16.5028 19.7256 17.2955C19.1115 18.6215 17.5325 19.3934 16.0835 19.0179C13.796 18.425 12.6682 16.1664 13.4064 13.983C14.3876 11.0818 17.6851 9.8128 20.4953 11.2043C22.7672 12.3287 23.6105 14.2922 23.5199 16.6295C23.3715 20.4778 19.4883 23.3327 15.5945 22.5906C11.818 21.871 9.01378 18.2549 9.21494 14.8353C9.28893 13.5727 9.57004 12.3904 10.216 11.3055C11.8967 8.48424 14.5147 7.15654 17.7893 6.94177C18.6514 6.88521 19.5206 6.93327 20.3418 6.93369C20.2967 6.91371 20.1938 6.8631 20.0867 6.82312C18.4876 6.22434 16.835 6.03339 15.1416 6.27494C14.0916 6.40423 13.1224 6.68789 12.2412 7.0936C12.225 7.09615 12.2059 7.10168 12.1825 7.11146C11.7861 7.28029 11.7198 6.89244 11.579 6.77507C11.4421 6.66109 11.46 6.80271 11.46 6.80271C11.5795 7.3713 11.2801 7.60052 11.2397 7.62859C10.99 7.78297 10.7506 7.94967 10.5193 8.12489C10.5124 8.12787 10.5073 8.12787 10.5001 8.13127C9.95364 8.38048 9.72654 7.95946 9.4752 7.83145C9.20941 7.69621 9.30977 7.9182 9.30977 7.9182C9.63893 8.57228 9.35485 9.13194 9.30169 9.22635C9.06864 9.47769 8.85048 9.74178 8.64634 10.0161C8.62508 10.0297 8.60424 10.0425 8.58 10.0641C8.0433 10.5494 7.62569 10.1654 7.29397 10.0931C6.92824 10.014 7.13534 10.2534 7.13534 10.2534C7.81196 10.9462 7.59804 11.7793 7.59804 11.7793L7.59974 11.7801C6.73048 13.6586 6.41833 15.8326 6.77939 18.0151C7.96633 25.189 16.7904 28.5772 22.5745 23.9557C24.4529 22.4549 25.756 19.5639 25.8934 17.1722C25.9912 15.4736 25.466 13.932 24.4976 12.5363C22.4431 9.57465 18.3366 8.38516 15.1288 9.79239Z" fill="#5B8EF4"/>
</g>
</g>
</g>
</svg>
