<svg width="32" height="32" viewBox="0 0 32 32" fill="none" xmlns="http://www.w3.org/2000/svg">
<g id="Icon / Coin">
<circle id="Circle" cx="16" cy="16" r="16" fill="white"/>
<path id="Shape" fill-rule="evenodd" clip-rule="evenodd" d="M17.461 10.335C18.5476 10.335 19.4285 9.45413 19.4285 8.36752C19.4285 7.2809 18.5476 6.40002 17.461 6.40002C16.3744 6.40002 15.4935 7.2809 15.4935 8.36752C15.4935 9.45413 16.3744 10.335 17.461 10.335ZM26.3486 16C26.3486 18.2107 24.5565 20.0029 22.3458 20.0029C20.1351 20.0029 18.343 18.2107 18.343 16C18.343 13.7893 20.1351 11.9972 22.3458 11.9972C24.5565 11.9972 26.3486 13.7893 26.3486 16ZM19.4285 23.6325C19.4285 24.7191 18.5476 25.6 17.461 25.6C16.3744 25.6 15.4935 24.7191 15.4935 23.6325C15.4935 22.5459 16.3744 21.665 17.461 21.665C18.5476 21.665 19.4285 22.5459 19.4285 23.6325ZM7.38608 10.4707C6.80941 11.9972 7.62354 13.7272 9.15004 14.3039C10.1677 14.6771 11.2532 14.4735 12.0334 13.829C12.7458 13.3202 13.6617 13.1506 14.5437 13.4898C15.1204 13.6933 15.5614 14.0665 15.8667 14.5414L15.9006 14.6092C16.0363 14.8127 16.2398 15.0163 16.5112 15.0841C17.1218 15.3216 17.8341 14.9824 18.0377 14.3718C18.2751 13.7612 17.9359 13.0488 17.3253 12.8453C17.0539 12.7435 16.7826 12.7435 16.5112 12.8453C15.9684 13.0149 15.3578 13.0149 14.7811 12.8113C13.9331 12.506 13.3564 11.8276 13.1189 11.0474L13.085 10.9795C13.085 10.9456 13.085 10.9117 13.0511 10.9117V10.8438C12.8136 9.89402 12.1691 9.07988 11.1854 8.74066C9.65888 8.13006 7.92884 8.91027 7.38608 10.4707ZM9.15004 17.6961C7.62354 18.2728 6.80941 20.0029 7.38608 21.5294C7.96276 23.0898 9.65888 23.87 11.1854 23.2594C12.1691 22.9202 12.8136 22.106 13.0511 21.1562V21.0884C13.085 21.0884 13.085 21.0544 13.085 21.0205L13.1189 20.9527C13.3564 20.1725 13.9331 19.494 14.7811 19.1887C15.3578 18.9852 15.9684 18.9852 16.5112 19.1548C16.7826 19.2566 17.0539 19.2566 17.3253 19.1548C17.9359 18.9513 18.2751 18.2389 18.0377 17.6283C17.8341 17.0177 17.1218 16.6785 16.5112 16.9159C16.2398 16.9838 16.0363 17.1873 15.9006 17.3908L15.8667 17.4587C15.5614 17.9336 15.1204 18.3067 14.5437 18.5103C13.6617 18.8495 12.7458 18.6799 12.0334 18.171C11.2532 17.5265 10.1677 17.323 9.15004 17.6961Z" fill="#502EA2"/>
</g>
</svg>
