<svg xmlns="http://www.w3.org/2000/svg" viewBox="0 0 15.73 9.48"><defs><style>.cls-1{fill:#fff;}</style></defs><g id="图层_2" data-name="图层 2"><g id="图层_1-2" data-name="图层 1"><polygon class="cls-1" points="3.13 9.48 0 9.48 3.45 0 6.58 0 3.13 9.48"/><polygon class="cls-1" points="6.92 9.48 10.05 9.48 6.6 0 3.47 0 6.92 9.48"/><rect class="cls-1" x="3.77" y="4.59" width="2.38" height="5.6" transform="translate(-2.43 12.35) rotate(-90)"/><path class="cls-1" d="M14.48.43l.64,1.77H11l.58.71L14.6,6.1a1.85,1.85,0,0,1,.32,1,1.91,1.91,0,0,1-.55,1.37,1.67,1.67,0,0,1-1.27.58H8.65V7.28h4.7l-.7-.73-3-3.18a1.53,1.53,0,0,1-.31-1A1.93,1.93,0,0,1,9.83,1,1.69,1.69,0,0,1,11.11.43h3.37m.3-.43H11.11A2.11,2.11,0,0,0,9.52.71a2.32,2.32,0,0,0-.65,1.66,2,2,0,0,0,.42,1.29l3.05,3.19H8.23V9.48H13.1a2.13,2.13,0,0,0,1.59-.7,2.37,2.37,0,0,0,.66-1.67,2.25,2.25,0,0,0-.42-1.28l-3.07-3.2h3.87L14.78,0Z"/></g></g></svg>