<?xml version="1.0" encoding="UTF-8"?>
<svg width="12px" height="12px" viewBox="0 0 12 12" version="1.1" xmlns="http://www.w3.org/2000/svg" xmlns:xlink="http://www.w3.org/1999/xlink">
    <title>expand</title>
    <g id="页面-1" stroke="none" stroke-width="1" fill="none" fill-rule="evenodd">
        <g id="K线图" transform="translate(-328.000000, -184.000000)">
            <g id="编组-9" transform="translate(15.000000, 184.000000)">
                <g id="expand" transform="translate(313.000000, 0.000000)">
                    <rect id="矩形" fill="#6D87A8" fill-rule="nonzero" opacity="0" x="0" y="0" width="12" height="12"></rect>
                    <rect id="矩形" stroke="#6D87A8" stroke-width="0.6" x="1.3" y="1.3" width="9.4" height="9.4" rx="1.4"></rect>
                    <path d="M3.1975,6.171 C3.3825,6.171 3.5325,6.321 3.5325,6.506 L3.5325,7.916 L5.179,6.269 C5.31001703,6.13965849 5.52085656,6.14028128 5.6511072,6.27039453 C5.78135785,6.40050778 5.78220316,6.61134653 5.653,6.7425 L4.006,8.39 L5.416,8.39 C5.53569889,8.38997762 5.64631481,8.45382336 5.70617072,8.55748191 C5.76602663,8.66114047 5.76602663,8.78885954 5.70617072,8.89251809 C5.64631481,8.99617665 5.53569889,9.06000001 5.416,9.06000001 L3.1975,9.06000001 C3.01248461,9.06000001 2.8625,8.91001538 2.8625,8.725 L2.8625,6.5065 C2.8625,6.32149999 3.0125,6.17149999 3.1975,6.1715 L3.1975,6.171 Z M8.87,5.819 C8.68498461,5.819 8.535,5.66901539 8.535,5.484 L8.535,4.0615 L6.8755,5.7215 C6.74434653,5.85070317 6.53350777,5.84985786 6.40339452,5.71960721 C6.27328127,5.58935657 6.27265849,5.37851704 6.402,5.2475 L8.062,3.5875 L6.639,3.5875 C6.45915357,3.58054792 6.31693996,3.43273075 6.31693996,3.25275 C6.31693996,3.07276925 6.45915357,2.92495208 6.639,2.918 L8.87,2.918 C9.05500001,2.918 9.205,3.068 9.205,3.253 L9.205,5.4845 C9.205,5.66950001 9.055,5.8195 8.87,5.8195 L8.87,5.819 Z" id="形状" fill="#6D87A8" fill-rule="nonzero"></path>
                </g>
            </g>
        </g>
    </g>
</svg>