<?xml version="1.0" encoding="UTF-8"?>
<svg width="20px" height="20px" viewBox="0 0 20 20" version="1.1" xmlns="http://www.w3.org/2000/svg" xmlns:xlink="http://www.w3.org/1999/xlink">
    <title>expand</title>
    <g id="交易界面" stroke="none" stroke-width="1" fill="none" fill-rule="evenodd">
        <g transform="translate(-1072.000000, -134.000000)" fill="#60688A" fill-rule="nonzero" id="K线图">
            <g transform="translate(635.577000, 124.000000)">
                <g id="icon" transform="translate(404.423000, 10.000000)">
                    <g id="expand" transform="translate(32.000000, 0.000000)">
                        <rect id="矩形" opacity="0" x="0" y="0" width="20" height="20"></rect>
                        <path d="M15.875,3.26333334 C16.3508333,3.26333334 16.7366667,3.64916668 16.7366667,4.125 L16.7366667,15.875 C16.7366667,16.3508333 16.3508333,16.7366667 15.875,16.7366667 L4.125,16.7366667 C3.64911464,16.7366667 3.26333334,16.3508854 3.26333334,15.875 L3.26333334,4.125 C3.26333334,3.64916666 3.64916668,3.26333334 4.125,3.26333334 L15.875,3.26333334 Z M4.125,2.16666666 C3.04344236,2.16666666 2.16666666,3.04344236 2.16666666,4.125 L2.16666666,15.875 C2.16666666,16.9565576 3.04344236,17.8333333 4.125,17.8333333 L15.875,17.8333333 C16.9565576,17.8333333 17.8333333,16.9565576 17.8333333,15.875 L17.8333333,4.125 C17.8333333,3.04344236 16.9565576,2.16666666 15.875,2.16666666 L4.125,2.16666666 Z" id="形状"></path>
                        <path d="M5.32916666,10.285 C5.6375,10.285 5.8875,10.535 5.8875,10.8433333 L5.8875,13.1933333 L8.63166666,10.4483333 C8.85002838,10.2327642 9.2014276,10.2338021 9.41851201,10.4506575 C9.63559642,10.667513 9.63700526,11.0189109 9.42166666,11.2375 L6.67666666,13.9833333 L9.02666666,13.9833333 C9.22616482,13.983296 9.41052469,14.0897056 9.51028454,14.2624699 C9.61004439,14.4352341 9.61004439,14.6480992 9.51028454,14.8208635 C9.41052469,14.9936277 9.22616482,15.1 9.02666666,15.1 L5.32916666,15.1 C5.02080768,15.1 4.77083334,14.8500256 4.77083334,14.5416667 L4.77083334,10.8441667 C4.77083334,10.5358333 5.02083334,10.2858333 5.32916666,10.2858333 L5.32916666,10.285 Z M14.7833333,9.69833334 C14.4749744,9.69833334 14.225,9.44835899 14.225,9.14 L14.225,6.76916666 L11.4591667,9.53583334 C11.2405775,9.75117194 10.8891796,9.7497631 10.6723242,9.53267869 C10.4554688,9.31559428 10.4544308,8.96419506 10.67,8.74583334 L13.4366667,5.97916666 L11.065,5.97916666 C10.7652559,5.96757987 10.5282333,5.72121792 10.5282333,5.42125 C10.5282333,5.12128208 10.7652559,4.87492013 11.065,4.86333334 L14.7833333,4.86333334 C15.0916667,4.86333334 15.3416667,5.11333334 15.3416667,5.42166666 L15.3416667,9.14083334 C15.3416667,9.44916668 15.0916667,9.69916666 14.7833333,9.69916666 L14.7833333,9.69833334 Z" id="形状"></path>
                    </g>
                </g>
            </g>
        </g>
    </g>
</svg>