<?xml version="1.0" encoding="UTF-8"?>
<svg width="20px" height="20px" viewBox="0 0 20 20" version="1.1" xmlns="http://www.w3.org/2000/svg" xmlns:xlink="http://www.w3.org/1999/xlink">
    <title>折线图</title>
    <g id="交易界面" stroke="none" stroke-width="1" fill="none" fill-rule="evenodd">
        <g id="交易页面" transform="translate(-1040.000000, -134.000000)" fill-rule="nonzero">
            <g id="K线图" transform="translate(635.577000, 124.000000)">
                <g id="折线图" transform="translate(404.423000, 10.000000)">
                    <rect id="矩形" fill="#6D87A8" opacity="0" x="0" y="0" width="20" height="20"></rect>
                    <path d="M15.8168267,1.91844312 C16.9008449,1.91844312 17.7924432,2.74229033 17.8996586,3.79802157 L17.9104678,4.01208421 L17.9104678,15.7396923 C17.9104678,16.8237104 17.0866206,17.7153088 16.0308894,17.8225241 L15.8168267,17.8333333 L9.73132843,17.8333333 C9.45101666,17.8333333 9.22377907,17.6060958 9.22377907,17.325784 C9.22377907,17.0855168 9.39072914,16.8842428 9.61495202,16.8316394 L9.73132843,16.8182346 L15.8168267,16.8182346 C16.3583381,16.8182346 16.8066407,16.4191604 16.8836749,15.8990713 L16.8953691,15.7396923 L16.8953691,4.01208421 C16.8953691,3.47057284 16.4962948,3.02227026 15.9762058,2.945236 L15.8168267,2.93354183 L4.00410891,2.93354183 C3.46259754,2.93354183 3.01429496,3.3326161 2.9372607,3.85270512 L2.92556653,4.01208421 L2.92556653,15.7396923 C2.92556653,16.2812036 3.3246408,16.7295062 3.84472982,16.8065405 L4.00410891,16.8182346 L4.36908795,16.81732 L7.80210276,9.0517092 C7.95235487,8.73216353 8.36240405,8.6692185 8.60429392,8.89272785 L8.6862843,8.99002971 L10.5881536,11.9003898 L12.8485451,6.87625161 C12.9470829,6.65712001 13.1818927,6.54202066 13.4079649,6.58600228 L13.5196015,6.62150469 C13.7387331,6.72004242 13.8538325,6.95485227 13.8098509,7.18092447 L13.7743484,7.29256109 L11.1342621,13.1636759 C10.9880376,13.4888549 10.5736867,13.5561489 10.3293063,13.3312643 L10.2464867,13.2331697 L8.33273119,10.3047816 L5.15103697,17.541753 C5.08409082,17.6841294 4.95616571,17.785315 4.80698212,17.8200942 L4.6917291,17.8333333 L4.00410891,17.8333333 C2.92009074,17.8333333 2.0284924,17.0094861 1.92127706,15.9537549 L1.91046782,15.7396923 L1.91046782,4.01208421 C1.91046782,2.92806604 2.73431503,2.0364677 3.79004627,1.92925235 L4.00410891,1.91844312 L15.8168267,1.91844312 Z" id="路径-2" fill="#60688A"></path>
                </g>
            </g>
        </g>
    </g>
</svg>