<?xml version="1.0" encoding="UTF-8"?>
<svg width="12px" height="12px" viewBox="0 0 12 12" version="1.1" xmlns="http://www.w3.org/2000/svg" xmlns:xlink="http://www.w3.org/1999/xlink">
    <title>设置</title>
    <g id="页面-1" stroke="none" stroke-width="1" fill="none" fill-rule="evenodd">
        <g id="K线图" transform="translate(-348.000000, -184.000000)" fill-rule="nonzero">
            <g id="编组-9" transform="translate(15.000000, 184.000000)">
                <g id="设置" transform="translate(333.000000, 0.000000)">
                    <rect id="矩形" fill="#000000" opacity="0" x="0" y="0" width="12" height="12"></rect>
                    <path d="M6,8.175 C7.2,8.175 8.1375,7.2 8.1375,6 C8.1375,4.8 7.1625,3.825 6,3.825 C4.8,3.825 3.8625,4.8 3.8625,6 C3.8625,7.2 4.8375,8.175 6,8.175 Z M6,7.575 C5.1375,7.575 4.425,6.8625 4.425,6 C4.425,5.1375 5.1375,4.425 6,4.425 C6.8625,4.425 7.575,5.1375 7.575,6 C7.575,6.8625 6.8625,7.575 6,7.575 Z" id="形状" fill="#6D87A8"></path>
                    <path d="M2.91814453,9.88100391 C3.33064453,10.2185039 3.78064453,10.4810039 4.23064453,10.6685039 C4.71814453,10.2185039 5.35564453,9.95600391 5.99314453,9.95600391 C6.66814453,9.95600391 7.26814453,10.2185039 7.75564453,10.6685039 C8.24314453,10.4810039 8.69314453,10.2185039 9.06814453,9.88100391 C8.91814453,9.24350391 9.03064453,8.56850391 9.33064453,7.96850391 C9.66814453,7.40600391 10.1931445,6.95600391 10.8306445,6.76850391 C10.8681445,6.50600391 10.9056445,6.24350391 10.9056445,5.98100391 C10.9056445,5.71850391 10.8681445,5.45600391 10.8306445,5.19350391 C10.1931445,5.00600391 9.66814453,4.55600391 9.33064453,3.99350391 C8.99314453,3.43100391 8.91814453,2.71850391 9.06814453,2.08100391 C8.65564453,1.74350391 8.20564453,1.48100391 7.75564453,1.29350391 C7.26814453,1.74350391 6.66814453,2.00600391 5.99314453,2.00600391 C5.35564453,2.00600391 4.71814453,1.74350391 4.23064453,1.29350391 C3.74314453,1.48100391 3.29314453,1.74350391 2.91814453,2.08100391 C3.06814453,2.71850391 2.95564453,3.39350391 2.65564453,3.99350391 C2.31814453,4.55600391 1.79314453,5.00600391 1.15564453,5.19350391 C1.11814453,5.45600391 1.08064453,5.71850391 1.08064453,5.98100391 C1.08064453,6.24350391 1.11814453,6.50600391 1.15564453,6.76850391 C1.79314453,6.95600391 2.31814453,7.40600391 2.65564453,7.96850391 C2.95564453,8.56850391 3.06814453,9.24350391 2.91814453,9.88100391 M4.23064453,11.2310039 C3.59314453,11.0060039 2.99314453,10.6685039 2.46814453,10.1810039 C2.39314453,10.1060039 2.35564453,9.99350391 2.39314453,9.91850391 C2.58064453,9.35600391 2.50564453,8.75600391 2.20564453,8.26850391 C1.90564453,7.74350391 1.45564453,7.40600391 0.893144531,7.29350391 C0.780644531,7.25600391 0.705644531,7.18100391 0.705644531,7.06850391 C0.630644531,6.73100391 0.593144531,6.35600391 0.593144531,6.01850391 C0.593144531,5.68100391 0.630644531,5.34350391 0.705644531,4.96850391 C0.743144531,4.85600391 0.818144531,4.78100391 0.893144531,4.74350391 C1.45564453,4.59350391 1.94314453,4.25600391 2.20564453,3.76850391 C2.50564453,3.24350391 2.54314453,2.68100391 2.39314453,2.11850391 C2.35564453,2.00600391 2.39314453,1.89350391 2.46814453,1.85600391 C2.99314453,1.40600391 3.59314453,1.06850391 4.23064453,0.806003906 C4.34314453,0.768503906 4.41814453,0.806003906 4.49314453,0.881003906 C4.90564453,1.29350391 5.43064453,1.55600391 5.99314453,1.55600391 C6.55564453,1.55600391 7.11814453,1.33100391 7.49314453,0.881003906 C7.56814453,0.806003906 7.68064453,0.768503906 7.75564453,0.806003906 C8.39314453,1.03100391 8.99314453,1.36850391 9.51814453,1.85600391 C9.59314453,1.93100391 9.63064453,2.04350391 9.59314453,2.11850391 C9.40564453,2.68100391 9.48064453,3.28100391 9.78064453,3.76850391 C10.0806445,4.29350391 10.5306445,4.63100391 11.0931445,4.74350391 C11.2056445,4.78100391 11.2806445,4.85600391 11.2806445,4.96850391 C11.3556445,5.30600391 11.3931445,5.68100391 11.3931445,6.01850391 C11.3931445,6.35600391 11.3556445,6.69350391 11.2806445,7.06850391 C11.2431445,7.18100391 11.1681445,7.25600391 11.0931445,7.29350391 C10.5306445,7.44350391 10.0431445,7.78100391 9.78064453,8.26850391 C9.48064453,8.79350391 9.44314453,9.35600391 9.59314453,9.91850391 C9.63064453,10.0310039 9.59314453,10.1435039 9.51814453,10.1810039 C8.99314453,10.6310039 8.39314453,10.9685039 7.75564453,11.2310039 C7.64314453,11.2685039 7.56814453,11.2310039 7.49314453,11.1560039 C7.08064453,10.7435039 6.55564453,10.4810039 5.99314453,10.4810039 C5.43064453,10.4810039 4.86814453,10.7060039 4.49314453,11.1560039 C4.45564453,11.1935039 4.38064453,11.2310039 4.30564453,11.2310039 L4.23064453,11.2310039 Z" id="形状" fill="#6D87A8"></path>
                </g>
            </g>
        </g>
    </g>
</svg>