<?xml version="1.0" encoding="UTF-8"?>
<svg width="20px" height="20px" viewBox="0 0 20 20" version="1.1" xmlns="http://www.w3.org/2000/svg" xmlns:xlink="http://www.w3.org/1999/xlink">
    <title>setting</title>
    <g id="交易界面" stroke="none" stroke-width="1" fill="none" fill-rule="evenodd">
        <g transform="translate(-1040.000000, -134.000000)" fill="#60688A" fill-rule="nonzero" id="K线图">
            <g transform="translate(635.577000, 124.000000)">
                <g id="setting" transform="translate(404.423000, 10.000000)">
                    <rect id="矩形" opacity="0" x="0" y="0" width="20" height="20"></rect>
                    <path d="M18.1583333,8.3725 C18.06,7.84916666 17.7391667,7.51083334 17.3275,7.51083334 L17.2566667,7.51083334 C16.1441938,7.50991432 15.2425857,6.60830622 15.2416667,5.49583334 C15.2416667,5.145 15.41,4.74416668 15.4166667,4.72916666 C15.619296,4.25866254 15.4666556,3.71054502 15.05,3.4125 L12.965,2.25 L12.9341667,2.235 C12.5175,2.05416666 11.9466667,2.17 11.6358333,2.49416666 C11.4108333,2.72666666 10.635,3.38833332 10.0425,3.38833334 C9.4425,3.38833334 8.66583334,2.71333334 8.43916666,2.47666666 C8.12916666,2.15 7.56416666,2.0275 7.1425,2.20833334 L4.98333334,3.39166666 L4.95,3.41166666 C4.53381734,3.70847019 4.38052172,4.25506271 4.58166666,4.725 C4.58916666,4.74166666 4.75833332,5.13916666 4.75833334,5.495 C4.75741432,6.60747288 3.85580622,7.50908098 2.74333334,7.51 L2.66,7.51 C2.26083334,7.51 1.94,7.84833334 1.84083334,8.37166666 C1.83333334,8.40916666 1.66666666,9.295 1.66666666,10.0058333 C1.66666666,10.7141667 1.83333332,11.6 1.84166666,11.6366667 C1.94,12.16 2.26083332,12.4991667 2.6725,12.4991667 L2.74333334,12.4991667 C3.85548125,12.5000849 4.75695503,13.4011859 4.75833334,14.5133333 C4.75833334,14.8666667 4.58916668,15.2658333 4.58333334,15.2808333 C4.38093078,15.750481 4.53282002,16.2976984 4.94833334,16.5958333 L6.99333334,17.7433333 L7.025,17.7575 C7.4475,17.9441667 8.02,17.8225 8.32916666,17.4841667 C8.615,17.1758333 9.38916666,16.5341667 9.9575,16.5341667 C10.5741667,16.5341667 11.3666667,17.2525 11.5958333,17.5041667 C11.8066667,17.735 12.1308333,17.8741667 12.4625,17.8741667 C12.6166667,17.8741667 12.7633333,17.8433333 12.8975,17.7858333 L15.0183333,16.6175 L15.05,16.5975 C15.4665888,16.3006009 15.6199305,15.753497 15.4183333,15.2833333 C15.4108333,15.2666667 15.2416667,14.8691667 15.2416667,14.5133333 C15.243504,13.4015114 16.1448436,12.5009173 17.2566667,12.5 L17.34,12.5 C17.7383333,12.5 18.06,12.1608333 18.1591667,11.6375 C18.1658333,11.6008333 18.3333333,10.715 18.3333333,10.0058333 C18.3333333,9.29583334 18.1666667,8.41 18.1583333,8.37333334 L18.1583333,8.3725 Z M17.125,10.0058333 C17.125,10.4641667 17.0333333,11.0541667 16.9916667,11.3 C15.3193546,11.4375517 14.032459,12.8353741 14.0333333,14.5133333 C14.0333333,14.9883333 14.1833333,15.4441667 14.2641667,15.6533333 L12.455,16.6533333 C12.2357249,16.42635 11.9985736,16.2173448 11.7458333,16.0283333 C11.1175,15.5625 10.5158333,15.325 9.9575,15.325 C9.40333334,15.325 8.80666666,15.5566667 8.18083334,16.0166667 C7.92876662,16.2003175 7.69290353,16.4052341 7.47583334,16.6291667 L5.735,15.6541667 C5.82,15.435 5.96666666,14.985 5.96666666,14.5133333 C5.9675766,12.8356689 4.68114914,11.4379613 3.00916666,11.3 C2.9675,11.0533333 2.87583334,10.4641667 2.87583334,10.005 C2.87583334,9.545 2.9675,8.955 3.00916666,8.70916666 C4.67583332,8.5725 5.9675,7.18 5.9675,5.49583334 C5.9675,5.02333334 5.81583334,4.56666668 5.73583334,4.3575 L7.59,3.33833334 C7.67083334,3.41916668 7.935,3.67833334 8.29666666,3.935 C8.91333332,4.375 9.5,4.5975 10.0425,4.5975 C10.5808333,4.5975 11.1633333,4.37916666 11.7758333,3.9475 C12.14,3.69166666 12.4033333,3.43666666 12.48,3.36416666 L14.2641667,4.35583334 C14.1841667,4.56333334 14.0333333,5.01833334 14.0333333,5.49583334 C14.032459,7.1737926 15.3193546,8.57161499 16.9916667,8.70916666 C17.0333333,8.95583332 17.125,9.54833332 17.125,10.005 L17.125,10.0058333 Z" id="形状"></path>
                    <path d="M9.96333334,7.02916666 C8.3275463,7.03192045 7.00229385,8.35754559 7,9.99333334 C7.00137776,11.6299613 8.32753915,12.9564955 9.96416666,12.9583333 C11.6011196,12.9569549 12.9277882,11.6302863 12.9291667,9.99333334 C12.9268706,8.35689601 11.6006046,7.03100272 9.96416666,7.02916666 L9.96333334,7.02916666 Z M11.72,9.99333334 C11.718622,10.9628073 10.9328078,11.7482487 9.96333334,11.7491667 C8.99431966,11.7477887 8.2092513,10.9623476 8.20833334,9.99333334 C8.20833334,9.02666668 8.995,8.23833334 9.96333334,8.23833334 C10.9328078,8.2392513 11.718622,9.02469275 11.72,9.99416666 L11.72,9.99333334 Z" id="形状"></path>
                </g>
            </g>
        </g>
    </g>
</svg>